<?xml version="1.0" encoding="UTF-8"?>
<svg version="1.1" xmlns="http://www.w3.org/2000/svg" width="50" height="50">
<path d="M0 0 C2.8125 -0.5625 2.8125 -0.5625 6 0 C10.14610187 4.29251317 12.69948198 8.89391215 15.25 14.25 C15.600625 14.96929687 15.95125 15.68859375 16.3125 16.4296875 C17.21497774 18.28323794 18.10816093 20.14130735 19 22 C19.33 22.66 19.66 23.32 20 24 C21.65 20.04 23.3 16.08 25 12 C23.515 11.1028125 23.515 11.1028125 22 10.1875 C21.01 9.465625 20.02 8.74375 19 8 C19 7.01 19 6.02 19 5 C21.475 5.495 21.475 5.495 24 6 C23.67 4.35 23.34 2.7 23 1 C23.99 1 24.98 1 26 1 C26.99 2.98 27.98 4.96 29 7 C29.86625 6.01 29.86625 6.01 30.75 5 C33 3 33 3 37 3 C37.84381994 11.26943544 34.78872975 18.3509127 32 26 C32.99 25.67 33.98 25.34 35 25 C35.70074844 28.153368 36 30.72724974 36 34 C35.01 34.495 35.01 34.495 34 35 C34.495 36.98 34.495 36.98 35 39 C34.01 39.33 33.02 39.66 32 40 C32 40.66 32 41.32 32 42 C29.83125748 41.49396008 28.00032373 41.00016187 26 40 C24.68 41.98 23.36 43.96 22 46 C19.875 46 19.875 46 17 45 C12.37089451 39.98319992 9.05376964 33.89921125 5.8125 27.9375 C5.38775391 27.17373047 4.96300781 26.40996094 4.52539062 25.62304688 C-2.44394107 12.95252005 -2.44394107 12.95252005 -2.3125 7.25 C-2.30669922 6.14398438 -2.30669922 6.14398438 -2.30078125 5.015625 C-2 3 -2 3 0 0 Z M30 29 C29.67 30.32 29.34 31.64 29 33 C30.32 32.34 31.64 31.68 33 31 C32.01 30.34 31.02 29.68 30 29 Z M28 33 C28 33.99 28 34.98 28 36 C28.66 35.67 29.32 35.34 30 35 C29.34 34.34 28.68 33.68 28 33 Z " fill="#FB752F" transform="translate(6,2)"/>
<path d="M0 0 C0.66 0.33 1.32 0.66 2 1 C2 3.64 2 6.28 2 9 C1.01 9.495 1.01 9.495 0 10 C0.33 11.32 0.66 12.64 1 14 C0.01 14.33 -0.98 14.66 -2 15 C-2 15.66 -2 16.32 -2 17 C-3.32 16.67 -4.64 16.34 -6 16 C-6.33 14.35 -6.66 12.7 -7 11 C-6.34 10.67 -5.68 10.34 -5 10 C-4.67 9.01 -4.34 8.02 -4 7 C-3.34 6.67 -2.68 6.34 -2 6 C-2.33 4.68 -2.66 3.36 -3 2 C-2.01 1.34 -1.02 0.68 0 0 Z " fill="#DE4AB0" transform="translate(40,27)"/>
<path d="M0 0 C0.99 0 1.98 0 3 0 C5 3 5 3 4.625 6.1875 C4.41875 7.115625 4.2125 8.04375 4 9 C0.23312136 9 -0.91190305 8.76462683 -4 7 C-4 6.01 -4 5.02 -4 4 C-1.525 4.495 -1.525 4.495 1 5 C0.67 3.35 0.34 1.7 0 0 Z " fill="#9AC83B" transform="translate(29,3)"/>
<path d="M0 0 C0.99 0 1.98 0 3 0 C3.33 3.3 3.66 6.6 4 10 C3.01 9.67 2.02 9.34 1 9 C0.67 6.03 0.34 3.06 0 0 Z " fill="#FEF0E8" transform="translate(8,8)"/>
<path d="M0 0 C2.31 0.33 4.62 0.66 7 1 C7 1.99 7 2.98 7 4 C4.69 3.67 2.38 3.34 0 3 C0 2.01 0 1.02 0 0 Z " fill="#DF4DAD" transform="translate(7,35)"/>
<path d="M0 0 C0.99 0 1.98 0 3 0 C2.67 0.99 2.34 1.98 2 3 C1.34 3 0.68 3 0 3 C0 2.01 0 1.02 0 0 Z " fill="#DD4BB0" transform="translate(14,41)"/>
<path d="M0 0 C0.99 0 1.98 0 3 0 C3 0.99 3 1.98 3 3 C2.01 2.67 1.02 2.34 0 2 C0 1.34 0 0.68 0 0 Z " fill="#98C83B" transform="translate(34,4)"/>
</svg>
